<svg xmlns="http://www.w3.org/2000/svg" viewBox="0 0 800 300">
  <!-- Blue Ring Group -->
  <g>
    <circle cx="200" cy="150" r="60" fill="none" stroke="#0085C7" stroke-width="0.5" stroke-opacity="0.1"/>
    <circle cx="200" cy="150" r="45" fill="none" stroke="#0085C7" stroke-width="0.5" stroke-opacity="0.1"/>
    <circle cx="200" cy="150" r="30" fill="none" stroke="#0085C7" stroke-width="0.5" stroke-opacity="0.1"/>
    <circle cx="180" cy="110" r="4" fill="#0085C7"/>
    <circle cx="240" cy="170" r="4" fill="#0085C7"/>
    <circle cx="190" cy="190" r="4" fill="#0085C7"/>
    <circle cx="160" cy="150" r="4" fill="#0085C7"/>
  </g>

  <!-- Black Ring Group -->
  <g>
    <circle cx="350" cy="150" r="60" fill="none" stroke="#000000" stroke-width="0.5" stroke-opacity="0.1"/>
    <circle cx="350" cy="150" r="45" fill="none" stroke="#000000" stroke-width="0.5" stroke-opacity="0.1"/>
    <circle cx="350" cy="150" r="30" fill="none" stroke="#000000" stroke-width="0.5" stroke-opacity="0.1"/>
    <circle cx="340" cy="100" r="4" fill="#000000"/>
    <circle cx="390" cy="170" r="4" fill="#000000"/>
    <circle cx="320" cy="180" r="4" fill="#000000"/>
    <circle cx="370" cy="130" r="4" fill="#000000"/>
  </g>

  <!-- Red Ring Group -->
  <g>
    <circle cx="500" cy="150" r="60" fill="none" stroke="#DF0024" stroke-width="0.5" stroke-opacity="0.1"/>
    <circle cx="500" cy="150" r="45" fill="none" stroke="#DF0024" stroke-width="0.5" stroke-opacity="0.1"/>
    <circle cx="500" cy="150" r="30" fill="none" stroke="#DF0024" stroke-width="0.5" stroke-opacity="0.1"/>
    <circle cx="480" cy="100" r="4" fill="#DF0024"/>
    <circle cx="540" cy="160" r="4" fill="#DF0024"/>
    <circle cx="510" cy="190" r="4" fill="#DF0024"/>
    <circle cx="470" cy="140" r="4" fill="#DF0024"/>
  </g>

  <!-- Yellow Ring Group -->
  <g>
    <circle cx="275" cy="200" r="60" fill="none" stroke="#FFD700" stroke-width="0.5" stroke-opacity="0.1"/>
    <circle cx="275" cy="200" r="45" fill="none" stroke="#FFD700" stroke-width="0.5" stroke-opacity="0.1"/>
    <circle cx="275" cy="200" r="30" fill="none" stroke="#FFD700" stroke-width="0.5" stroke-opacity="0.1"/>
    <circle cx="255" cy="160" r="4" fill="#FFD700"/>
    <circle cx="315" cy="220" r="4" fill="#FFD700"/>
    <circle cx="285" cy="240" r="4" fill="#FFD700"/>
    <circle cx="245" cy="200" r="4" fill="#FFD700"/>
  </g>

  <!-- Green Ring Group -->
  <g>
    <circle cx="425" cy="200" r="60" fill="none" stroke="#009F3D" stroke-width="0.5" stroke-opacity="0.1"/>
    <circle cx="425" cy="200" r="45" fill="none" stroke="#009F3D" stroke-width="0.5" stroke-opacity="0.1"/>
    <circle cx="425" cy="200" r="30" fill="none" stroke="#009F3D" stroke-width="0.5" stroke-opacity="0.1"/>
    <circle cx="405" cy="160" r="4" fill="#009F3D"/>
    <circle cx="465" cy="220" r="4" fill="#009F3D"/>
    <circle cx="435" cy="240" r="4" fill="#009F3D"/>
    <circle cx="395" cy="200" r="4" fill="#009F3D"/>
  </g>
</svg>